<svg width="33" height="32" viewBox="0 0 33 32" fill="none" xmlns="http://www.w3.org/2000/svg">
<g filter="url(#filter0_d_1_4931)">
<path fill-rule="evenodd" clip-rule="evenodd" d="M12.45 5.5C10.2193 5.5 8.44998 7.30906 8.44998 9.5C8.44998 10.4282 8.82682 11.4436 9.49868 12.5105C10.1669 13.5716 11.0915 14.6274 12.1013 15.6219C13.5077 17.007 14.9818 18.1879 16.1208 19.1003C16.4234 19.3427 16.7023 19.5661 16.95 19.7694C17.1977 19.5661 17.4766 19.3427 17.7792 19.1003C18.9182 18.1879 20.3923 17.007 21.7987 15.6219C22.8085 14.6274 23.7331 13.5716 24.4013 12.5105C25.0732 11.4436 25.45 10.4282 25.45 9.5C25.45 7.30898 23.6814 5.5 21.45 5.5C19.2973 5.5 18.0238 7.20226 17.6762 7.74742C17.3389 8.27655 16.5611 8.27653 16.2238 7.74742C15.8762 7.20225 14.6027 5.5 12.45 5.5ZM6.94998 9.5C6.94998 6.49094 9.38063 4 12.45 4C14.6814 4 16.1749 5.30207 16.95 6.21581C17.7251 5.30207 19.2186 4 21.45 4C24.5202 4 26.95 6.49102 26.95 9.5C26.95 10.8218 26.4206 12.1189 25.6706 13.3098C24.9169 14.5066 23.904 15.6539 22.8513 16.6906C21.3929 18.1269 19.758 19.4384 18.6002 20.3672C18.1149 20.7565 17.7134 21.0786 17.4439 21.3144C17.1611 21.5619 16.7389 21.5619 16.4561 21.3144C16.1866 21.0786 15.7851 20.7565 15.2998 20.3672C14.142 19.4384 12.5071 18.1269 11.0487 16.6906C9.996 15.6539 8.98306 14.5066 8.2294 13.3098C7.47939 12.1189 6.94998 10.8218 6.94998 9.5Z" fill="#141415"/>
</g>
<defs>
<filter id="filter0_d_1_4931" x="0.949982" y="0" width="32" height="32" filterUnits="userSpaceOnUse" color-interpolation-filters="sRGB">
<feFlood flood-opacity="0" result="BackgroundImageFix"/>
<feColorMatrix in="SourceAlpha" type="matrix" values="0 0 0 0 0 0 0 0 0 0 0 0 0 0 0 0 0 0 127 0" result="hardAlpha"/>
<feOffset dy="4"/>
<feGaussianBlur stdDeviation="2"/>
<feComposite in2="hardAlpha" operator="out"/>
<feColorMatrix type="matrix" values="0 0 0 0 0 0 0 0 0 0 0 0 0 0 0 0 0 0 0.25 0"/>
<feBlend mode="normal" in2="BackgroundImageFix" result="effect1_dropShadow_1_4931"/>
<feBlend mode="normal" in="SourceGraphic" in2="effect1_dropShadow_1_4931" result="shape"/>
</filter>
</defs>
</svg>
